<svg xmlns="http://www.w3.org/2000/svg" viewBox="0 0 270 88" role="img" aria-labelledby="title desc">
  <title id="title">UpNext</title>
  <desc id="desc">UpNext logo in navy and green</desc>
  <g fill="none" stroke-linecap="round" stroke-linejoin="round">
    <path d="M18 45C18 23 34 10 54 10s36 13 36 35c0 21-16 34-36 34S18 66 18 45Z" fill="#edf8f4"/>
    <path d="M38 31c-8 0-14 6-14 14 0 15 18 25 30 31 12-6 30-16 30-31 0-8-6-14-14-14-7 0-12 4-16 9-4-5-9-9-16-9Z" fill="#142744"/>
    <circle cx="54" cy="29" r="7" fill="#148f7a" stroke="#edf8f4" stroke-width="3"/>
    <path d="M54 38v23M43 47l11 9 11-9" stroke="#edf8f4" stroke-width="5"/>
  </g>
  <text x="105" y="57" fill="#142744" font-family="Arial, Helvetica, sans-serif" font-size="38" font-weight="700" letter-spacing="-1.3">Up</text>
  <text x="153" y="57" fill="#148f7a" font-family="Arial, Helvetica, sans-serif" font-size="38" font-weight="700" letter-spacing="-1.3">Next</text>
</svg>
